<?xml version="1.0"?>
<svg xmlns="http://www.w3.org/2000/svg" viewBox="0 0 24 24">
    <path d="M 2 2 L 2.03125 10.84375 L 3.375 12.21875 C 4.38 11.45775 5.641 11 7 11 C 10.314 11 13 13.686 13 17 C 13 18.366 12.55025 19.617 11.78125 20.625 L 12.53125 21.375 C 13.34425 22.191 14.65275 22.21825 15.46875 21.40625 L 21.375 15.5 C 22.191 14.687 22.21825 13.3785 21.40625 12.5625 L 10.90625 2 L 2 2 z M 5.5 4 C 6.329 4 7 4.671 7 5.5 C 7 6.329 6.329 7 5.5 7 C 4.672 7 4 6.329 4 5.5 C 4 4.671 4.672 4 5.5 4 z M 7 12 C 4.239 12 2 14.238 2 17 C 2 19.762 4.239 22 7 22 C 9.761 22 12 19.761 12 17 C 12 14.239 9.762 12 7 12 z M 6 14 L 8 14 L 8 16 L 10 16 L 10 18 L 8 18 L 8 20 L 6 20 L 6 18 L 4 18 L 4 16 L 6 16 L 6 14 z"/>
</svg>
