<svg width="0" height="0" class="hidden">
  <symbol xmlns="http://www.w3.org/2000/svg" viewBox="0 0 512 512" id="call-outline">
    <title>ionicons-v5-g</title>
    <path
      d="M451,374c-15.88-16-54.34-39.35-73-48.76C353.7,313,351.7,312,332.6,326.19c-12.74,9.47-21.21,17.93-36.12,14.75s-47.31-21.11-75.68-49.39-47.34-61.62-50.53-76.48,5.41-23.23,14.79-36c13.22-18,12.22-21,.92-45.3-8.81-18.9-32.84-57-48.9-72.8C119.9,44,119.9,47,108.83,51.6A160.15,160.15,0,0,0,83,65.37C67,76,58.12,84.83,51.91,98.1s-9,44.38,23.07,102.64,54.57,88.05,101.14,134.49S258.5,406.64,310.85,436c64.76,36.27,89.6,29.2,102.91,23s22.18-15,32.83-31a159.09,159.09,0,0,0,13.8-25.8C465,391.17,468,391.17,451,374Z">
    </path>
  </symbol>
  <symbol xmlns="http://www.w3.org/2000/svg" viewBox="0 0 512 512" id="heart-outline">
    <title>ionicons-v5-f</title>
    <path
      d="M352.92,80C288,80,256,144,256,144s-32-64-96.92-64C106.32,80,64.54,124.14,64,176.81c-1.1,109.33,86.73,187.08,183,252.42a16,16,0,0,0,18,0c96.26-65.34,184.09-143.09,183-252.42C447.46,124.14,405.68,80,352.92,80Z">
    </path>
  </symbol>
  <symbol xmlns="http://www.w3.org/2000/svg" viewBox="0 0 512 512" id="home-outline">
    <title>ionicons-v5-i</title>
    <path d="M80,212V448a16,16,0,0,0,16,16h96V328a24,24,0,0,1,24-24h80a24,24,0,0,1,24,24V464h96a16,16,0,0,0,16-16V212">
    </path>
    <path d="M480,256,266.89,52c-5-5.28-16.69-5.34-21.78,0L32,256"></path>
    <polyline points="400 179 400 64 352 64 352 133"></polyline>
  </symbol>
  <symbol xmlns="http://www.w3.org/2000/svg" viewBox="0 0 512 512" id="search-outline">
    <title>ionicons-v5-f</title>
    <path d="M221.09,64A157.09,157.09,0,1,0,378.18,221.09,157.1,157.1,0,0,0,221.09,64Z"></path>
    <line x1="338.29" y1="338.29" x2="448" y2="448"></line>
  </symbol>
  <symbol xmlns="http://www.w3.org/2000/svg" viewBox="0 0 512 512" id="time-outline">
    <title>ionicons-v5-c</title>
    <path d="M256,64C150,64,64,150,64,256s86,192,192,192,192-86,192-192S362,64,256,64Z"></path>
    <polyline points="256 128 256 272 352 272"></polyline>
  </symbol>
  <symbol xmlns="http://www.w3.org/2000/svg" viewBox="0 0 512 512" id="videocam-outline">
    <title>ionicons-v5-g</title>
    <path
      d="M374.79,308.78,457.5,367A16,16,0,0,0,480,352.38V159.62A16,16,0,0,0,457.5,145l-82.71,58.22A16,16,0,0,0,368,216.3v79.4A16,16,0,0,0,374.79,308.78Z">
    </path>
    <path
      d="M268,384H84a52.15,52.15,0,0,1-52-52V180a52.15,52.15,0,0,1,52-52H268.48A51.68,51.68,0,0,1,320,179.52V332A52.15,52.15,0,0,1,268,384Z">
    </path>
  </symbol>
</svg>